Coordinates
version=1
nRows=18
nColumns=26
inDegrees=yes

Units are S.I. units (second, meters, Newtons, ...)
Angles are in degrees.

endheader
time	pelvis_tilt	pelvis_list	pelvis_rotation	pelvis_tx	pelvis_ty	pelvis_tz	hip_flexion_r	hip_adduction_r	hip_rotation_r	knee_angle_r	knee_angle_r_beta	ankle_angle_r	subtalar_angle_r	mtp_angle_r	hip_flexion_l	hip_adduction_l	hip_rotation_l	knee_angle_l	knee_angle_l_beta	ankle_angle_l	subtalar_angle_l	mtp_angle_l	lumbar_extension	lumbar_bending	lumbar_rotation
      1.22000000	    -11.03145200	     -2.31178903	      2.35539516	      0.47995573	      0.95354393	      0.36337074	     36.81572570	      2.66398747	    -10.03448591	     18.11323410	      0.31613557	      5.27148252	      0.00000000	      0.00000000	     -4.91191876	     -8.49491226	      1.94839719	     76.00772913	      1.32658513	    -13.76438062	      0.00000000	      0.00000000	      0.58947694	      4.29049516	    -22.54984110
      1.22400000	    -10.43031932	     -2.72249754	      2.08894786	      0.49507178	      0.95105461	      0.36344722	     36.09218225	      3.21926644	     -9.66218064	     19.39940909	      0.33858356	      4.80352278	      0.00000000	      0.00000000	     -4.54482830	     -9.30119775	      1.67672463	     78.48165445	      1.36976327	    -13.04539104	      0.00000000	      0.00000000	     -0.32110971	      4.94584515	    -21.90737027
      1.22800000	     -9.94917573	     -3.13893300	      1.86785634	      0.51006001	      0.94818341	      0.36347838	     35.47031152	      3.74583484	     -9.39644780	     20.55952358	      0.35883138	      4.04803340	      0.00000000	      0.00000000	     -3.98913815	    -10.11538677	      1.49662283	     81.03243713	      1.41428283	    -12.22989940	      0.00000000	      0.00000000	     -1.11153826	      5.57828721	    -21.23927334
      1.23200000	     -9.56681777	     -3.55177963	      1.62243936	      0.52509118	      0.94501918	      0.36344318	     34.98101004	      4.25094771	     -9.20330879	     21.74577481	      0.37953537	      2.86930885	      0.00000000	      0.00000000	     -3.31939155	    -10.92173907	      1.33310881	     83.55971066	      1.45839207	    -11.18246168	      0.00000000	      0.00000000	     -1.75725831	      6.21126474	    -20.54349654
      1.23600000	     -9.26901982	     -3.93183660	      1.42021542	      0.53990477	      0.94160426	      0.36338625	     34.58550204	      4.70020629	     -8.99251843	     22.88864516	      0.39948222	      1.49523423	      0.00000000	      0.00000000	     -2.48839595	    -11.65829609	      1.32996769	     86.10745501	      1.50285860	    -10.16295187	      0.00000000	      0.00000000	     -2.34015177	      6.78731468	    -19.83757454
      1.24000000	     -9.08126413	     -4.29588236	      1.22983827	      0.55453277	      0.93789170	      0.36337903	     34.37303334	      5.12142297	     -8.87745276	     24.12269660	      0.42102048	      0.15412638	      0.00000000	      0.00000000	     -1.46156402	    -12.39634606	      1.35772909	     88.66975228	      1.54757912	     -9.11569350	      0.00000000	      0.00000000	     -2.80018145	      7.32156975	    -19.16868418
      1.24400000	     -8.99692926	     -4.59175804	      0.99840099	      0.56900849	      0.93391979	      0.36341738	     34.38089026	      5.47527166	     -8.73939712	     25.65541206	      0.44777141	     -0.51460786	      0.00000000	      0.00000000	     -0.28501836	    -13.04359998	      1.42720527	     91.22807818	      1.59223033	     -7.97278576	      0.00000000	      0.00000000	     -3.17004559	      7.76973446	    -18.39334263
      1.24800000	     -9.00445834	     -4.90203741	      0.70828429	      0.58320745	      0.92977932	      0.36365400	     34.63124635	      5.88885425	     -8.59502597	     27.64747634	      0.48253949	      0.24559730	      0.00000000	      0.00000000	      1.06404690	    -13.74116037	      1.46664127	     93.79956204	      1.63711119	     -7.03509330	      0.00000000	      0.00000000	     -3.47574547	      8.21942850	    -17.57937800
      1.25200000	     -9.26830680	     -5.12468022	      0.50436684	      0.59680023	      0.92536000	      0.36377684	     35.33192867	      6.15680714	     -8.57782154	     30.15364201	      0.52628033	      2.00528457	      0.00000000	      0.00000000	      2.88949377	    -14.21243048	      1.85092029	     96.44988993	      1.68336814	     -6.02848020	      0.00000000	      0.00000000	     -3.52159842	      8.52956059	    -16.88289094
      1.25600000	     -9.35226775	     -5.56866909	      0.10114615	      0.61030613	      0.92141407	      0.36415271	     35.71348414	      6.77769737	     -8.56521956	     32.39108907	      0.56533115	      3.41202080	      0.00000000	      0.00000000	      4.45614493	    -15.08219818	      1.90515715	     98.93215374	      1.72669182	     -5.24039202	      0.00000000	      0.00000000	     -3.85988420	      9.11670220	    -15.87585337
      1.26000000	     -9.84838064	     -5.70710744	     -0.15807214	      0.62353835	      0.91690806	      0.36426320	     36.55528407	      6.99288954	     -8.44221649	     34.62709408	      0.60435680	      4.66662791	      0.00000000	      0.00000000	      6.68922763	    -15.42377251	      2.36832337	    101.53881511	      1.77218664	     -4.21842861	      0.00000000	      0.00000000	     -3.67177226	      9.34609692	    -15.09634396
      1.26400000	    -10.08966880	     -5.95281700	     -0.45504963	      0.63686360	      0.91295807	      0.36453905	     37.08907812	      7.37045425	     -8.25697454	     36.85836618	      0.64329985	      6.24972389	      0.00000000	      0.00000000	      8.60615323	    -15.96053998	      2.72277328	    103.91511172	      1.81366084	     -3.41805141	      0.00000000	      0.00000000	     -3.80701271	      9.67067587	    -14.24191286
      1.26800000	    -10.43878741	     -6.09640922	     -0.72560164	      0.65026436	      0.90900961	      0.36486191	     37.73318784	      7.66061731	     -7.95613844	     39.15443939	      0.68337388	      7.85138142	      0.00000000	      0.00000000	     10.70347029	    -16.40013235	      3.12423957	    106.18963766	      1.85335881	     -2.64902498	      0.00000000	      0.00000000	     -3.79992127	      9.86225491	    -13.35106737
      1.27200000	    -10.68290396	     -6.32973611	     -1.03177200	      0.66387258	      0.90536634	      0.36526606	     38.07144262	      8.12391118	     -7.56393151	     41.15737403	      0.71833169	      9.38863636	      0.00000000	      0.00000000	     12.70095772	    -16.91201935	      3.54887195	    108.30794196	      1.89033019	     -2.02074815	      0.00000000	      0.00000000	     -3.89464730	     10.14704902	    -12.46980411
      1.27600000	    -10.81231179	     -6.59016033	     -1.21920191	      0.67748709	      0.90205691	      0.36551038	     38.10308488	      8.50261310	     -7.39067679	     42.90020278	      0.74874979	     10.92666933	      0.00000000	      0.00000000	     14.60928212	    -17.46561583	      4.05568898	    110.26830849	      1.92454504	     -1.47250827	      0.00000000	      0.00000000	     -4.12325255	     10.45132915	    -11.68371163
      1.28000000	    -11.25009565	     -6.56638161	     -1.37604456	      0.69112908	      0.89846453	      0.36544053	     38.39084519	      8.54991738	     -7.11473125	     44.51806830	      0.77698687	     12.47337088	      0.00000000	      0.00000000	     16.94999686	    -17.52950014	      4.65213459	    112.19323525	      1.95814135	     -0.82232661	      0.00000000	      0.00000000	     -3.94086415	     10.46358689	    -10.99001149
      1.28400000	    -11.50076342	     -6.67479035	     -1.46266791	      0.70495114	      0.89554958	      0.36557293	     38.26936329	      8.72160491	     -6.98116679	     45.81636963	      0.79964650	     13.98320897	      0.00000000	      0.00000000	     19.12213413	    -17.78027400	      5.29286811	    113.90344321	      1.98799011	     -0.33183700	      0.00000000	      0.00000000	     -3.96912706	     10.57869176	    -10.34514473
      1.28800000	    -11.82285177	     -6.78252037	     -1.51601690	      0.71915859	      0.89293434	      0.36559348	     38.07273601	      8.84712896	     -6.96114035	     46.86989190	      0.81803393	     15.44929830	      0.00000000	      0.00000000	     21.35134081	    -18.01265403	      5.89939517	    115.38290388	      2.01381157	      0.22170073	      0.00000000	      0.00000000	     -3.84756038	     10.70073168	     -9.76788809
